<svg width="1360" height="797" viewBox="0 0 1360 797" fill="none" xmlns="http://www.w3.org/2000/svg">
<path d="M1329.52 0H30.5068C13.6929 0 0 13.5411 0 30.1969V461.144C0 477.108 12.5984 490.257 28.4575 491.272C29.1329 491.342 29.8083 491.365 30.5068 491.365H121.608V486.751H30.5068C29.8083 486.751 29.1329 486.728 28.4575 486.659C15.1603 485.621 4.65756 474.571 4.65756 461.144V30.1969C4.65753 16.0789 16.2547 4.61375 30.5068 4.61375H1329.52C1343.77 4.61375 1355.34 16.0789 1355.34 30.1969V461.144C1355.34 475.263 1343.77 486.751 1329.52 486.751H1225.44V491.365H1329.52C1346.33 491.365 1360 477.8 1360 461.144V30.1969C1360 13.5411 1346.33 0 1329.52 0Z" fill="#E3E3E3"/>
</svg>
