<svg width="651" height="699" viewBox="0 0 651 699" fill="none" xmlns="http://www.w3.org/2000/svg">
<g clip-path="url(#clip0_424_5)">
<path d="M140.808 282.962C110.142 252.774 97.1907 221.281 104.338 194.284C113.51 159.639 154.256 135.685 216.128 128.563L216.357 130.551C155.345 137.572 115.221 160.989 106.271 194.795C99.3157 221.069 112.079 251.875 142.211 281.538L140.808 282.962Z" fill="#F0F0F0"/>
<path d="M436.679 390.121C398.406 390.121 356.816 384.433 315.506 373.497C264.42 359.972 217.58 339.559 180.049 314.462L181.16 312.8C218.51 337.775 265.143 358.095 316.018 371.563C361.992 383.735 408.312 389.374 449.951 387.886L450.023 389.884C445.626 390.042 441.178 390.121 436.679 390.121Z" fill="#F0F0F0"/>
<path d="M524.479 377.544L523.839 375.649C558.068 364.076 579.478 345.433 585.752 321.734C593.728 291.606 576.4 256.646 536.962 223.291C497.322 189.767 440.161 161.951 376.006 144.967L376.518 143.033C440.953 160.092 498.393 188.052 538.253 221.764C578.314 255.645 595.87 291.33 587.686 322.246C581.231 346.625 559.375 365.746 524.479 377.544Z" fill="#F0F0F0"/>
<path d="M210.173 390.957C134.97 357.604 77.0205 314.332 47 269.111L48.666 268.005C78.479 312.912 136.125 355.928 210.984 389.129L210.173 390.957Z" fill="#F0F0F0"/>
<path d="M474.581 448.739C466.824 448.739 458.935 448.566 450.913 448.22L450.999 446.222C510.863 448.813 563.683 441.649 603.757 425.5L604.505 427.355C569.547 441.441 524.99 448.739 474.581 448.739Z" fill="#F0F0F0"/>
<path d="M430.948 130.357C418.519 126.31 405.733 122.542 392.948 119.157C319.375 99.6795 247.051 92.764 183.793 99.1619L183.592 97.1717C247.085 90.7528 319.657 97.6849 393.46 117.223C406.281 120.618 419.103 124.397 431.567 128.455L430.948 130.357Z" fill="#F0F0F0"/>
<path d="M93.8079 285.962C63.1424 255.774 50.1907 224.281 57.3377 197.284C66.5095 162.639 107.256 138.685 169.128 131.563L169.357 133.551C108.345 140.572 68.2209 163.989 59.2713 197.795C52.3157 224.069 65.0794 254.875 95.2112 284.538L93.8079 285.962Z" fill="#F0F0F0"/>
<path d="M389.679 393.121C351.406 393.121 309.816 387.433 268.506 376.497C217.42 362.972 170.58 342.559 133.049 317.462L134.16 315.8C171.51 340.775 218.143 361.095 269.018 374.563C314.992 386.735 361.312 392.374 402.951 390.886L403.023 392.884C398.626 393.042 394.178 393.121 389.679 393.121Z" fill="#F0F0F0"/>
<path d="M477.479 380.544L476.839 378.649C511.068 367.076 532.478 348.433 538.752 324.734C546.728 294.606 529.4 259.646 489.962 226.291C450.322 192.767 393.161 164.951 329.006 147.967L329.518 146.033C393.953 163.092 451.393 191.052 491.253 224.764C531.314 258.645 548.87 294.33 540.686 325.246C534.231 349.625 512.375 368.746 477.479 380.544Z" fill="#F0F0F0"/>
<path d="M163.173 393.957C87.9702 360.604 30.0205 317.332 0 272.111L1.66602 271.005C31.479 315.912 89.1245 358.928 163.984 392.129L163.173 393.957Z" fill="#F0F0F0"/>
<path d="M427.581 451.739C419.824 451.739 411.935 451.566 403.913 451.22L403.999 449.222C463.863 451.813 516.683 444.649 556.757 428.5L557.505 430.355C522.547 444.441 477.99 451.739 427.581 451.739Z" fill="#F0F0F0"/>
<path d="M383.948 133.357C371.519 129.31 358.733 125.542 345.948 122.157C272.375 102.68 200.051 95.764 136.793 102.162L136.592 100.172C200.085 93.7528 272.657 100.685 346.46 120.223C359.281 123.618 372.103 127.397 384.567 131.455L383.948 133.357Z" fill="#F0F0F0"/>
<path d="M156.166 110.533C181.294 110.533 201.664 90.163 201.664 65.0351C201.664 39.9073 181.294 19.5371 156.166 19.5371C131.038 19.5371 110.668 39.9073 110.668 65.0351C110.668 90.163 131.038 110.533 156.166 110.533Z" fill="#01567D"/>
<path d="M166.838 92.9961C157.642 92.9961 148.652 90.2691 141.005 85.1598C133.358 80.0505 127.399 72.7885 123.879 64.2921C120.36 55.7957 119.439 46.4465 121.233 37.4268C123.027 28.407 127.456 20.1219 133.959 13.619C140.462 7.11611 148.747 2.6876 157.767 0.893465C166.786 -0.900671 176.136 0.0201507 184.632 3.53948C193.128 7.05882 200.39 13.0186 205.5 20.6652C210.609 28.3117 213.336 37.3017 213.336 46.4981C213.322 58.8259 208.419 70.6447 199.702 79.3618C190.985 88.0788 179.166 92.9822 166.838 92.9961ZM166.838 2.00002C158.037 2.00001 149.434 4.60977 142.116 9.49927C134.799 14.3888 129.095 21.3384 125.727 29.4694C122.359 37.6003 121.478 46.5474 123.195 55.1792C124.912 63.811 129.15 71.7398 135.373 77.9629C141.596 84.1861 149.525 88.4241 158.157 90.1411C166.789 91.8581 175.736 90.9769 183.867 87.6089C191.998 84.241 198.947 78.5375 203.837 71.2199C208.726 63.9022 211.336 55.299 211.336 46.4981C211.323 34.7006 206.63 23.3901 198.288 15.048C189.946 6.70589 178.635 2.01341 166.838 2.00002Z" fill="#3F3D56"/>
<path d="M574.83 258.664C592.086 258.664 606.074 244.675 606.074 227.42C606.074 210.164 592.086 196.176 574.83 196.176C557.574 196.176 543.586 210.164 543.586 227.42C543.586 244.675 557.574 258.664 574.83 258.664Z" fill="#01567D"/>
<path d="M582.159 246.936C575.782 246.936 569.548 245.044 564.245 241.501C558.943 237.958 554.81 232.923 552.369 227.031C549.929 221.139 549.29 214.656 550.535 208.401C551.779 202.146 554.85 196.401 559.359 191.891C563.869 187.382 569.614 184.311 575.869 183.067C582.123 181.823 588.607 182.461 594.498 184.902C600.39 187.342 605.426 191.475 608.969 196.778C612.512 202.08 614.403 208.314 614.403 214.691C614.394 223.24 610.993 231.436 604.949 237.481C598.904 243.526 590.708 246.926 582.159 246.936ZM582.159 184.447C576.177 184.447 570.33 186.221 565.356 189.544C560.383 192.868 556.506 197.591 554.217 203.117C551.928 208.644 551.329 214.725 552.496 220.592C553.663 226.459 556.544 231.848 560.773 236.077C565.003 240.307 570.392 243.187 576.259 244.354C582.126 245.521 588.207 244.922 593.733 242.633C599.26 240.344 603.983 236.468 607.306 231.494C610.63 226.521 612.403 220.673 612.403 214.691C612.394 206.673 609.205 198.985 603.535 193.316C597.865 187.646 590.178 184.456 582.159 184.447Z" fill="#3F3D56"/>
<path d="M649.502 698.685H49.502C49.2367 698.685 48.9824 698.579 48.7948 698.392C48.6073 698.204 48.502 697.95 48.502 697.685C48.502 697.419 48.6073 697.165 48.7948 696.977C48.9824 696.79 49.2367 696.685 49.502 696.685H649.502C649.767 696.685 650.022 696.79 650.209 696.977C650.397 697.165 650.502 697.419 650.502 697.685C650.502 697.95 650.397 698.204 650.209 698.392C650.022 698.579 649.767 698.685 649.502 698.685Z" fill="#CACACA"/>
<path d="M607.698 658.012C604.543 659.121 601.155 659.399 597.861 658.818C594.567 658.238 591.478 656.819 588.892 654.699C582.305 649.171 580.24 640.062 578.56 631.629L573.59 606.684L583.995 613.849C591.478 619.001 599.129 624.319 604.311 631.782C609.493 639.245 611.754 649.433 607.591 657.509" fill="#FD6584"/>
<path d="M606.091 689.948C607.401 680.406 608.748 670.742 607.829 661.098C607.013 652.533 604.4 644.168 599.08 637.309C596.256 633.675 592.82 630.562 588.927 628.109C587.912 627.468 586.977 629.077 587.988 629.715C594.725 633.973 599.935 640.261 602.869 647.671C606.109 655.912 606.629 664.895 606.069 673.649C605.731 678.943 605.016 684.202 604.295 689.455C604.238 689.693 604.274 689.943 604.394 690.155C604.515 690.368 604.712 690.526 604.945 690.599C605.182 690.663 605.436 690.631 605.65 690.509C605.864 690.387 606.022 690.186 606.089 689.949L606.091 689.948Z" fill="#F2F2F2"/>
<path d="M596.664 674.638C595.311 676.695 593.451 678.369 591.263 679.498C589.075 680.627 586.633 681.174 584.173 681.085C577.85 680.785 572.578 676.372 567.833 672.185L553.798 659.789L563.087 659.345C569.767 659.025 576.62 658.727 582.987 660.787C589.354 662.847 595.218 667.805 596.381 674.387" fill="#E6E6E6"/>
<path d="M609.793 695.434C603.493 684.278 596.175 671.879 583.108 667.916C579.474 666.818 575.665 666.425 571.884 666.757C570.692 666.857 570.99 668.697 572.184 668.594C578.522 668.068 584.847 669.742 590.096 673.333C595.147 676.771 599.079 681.55 602.407 686.619C604.446 689.719 606.272 692.96 608.098 696.192C608.677 697.224 610.383 696.479 609.793 695.434Z" fill="#F2F2F2"/>
<path d="M112.999 670.999C115.271 671.948 117.749 672.295 120.194 672.008C122.64 671.72 124.97 670.808 126.96 669.359C132.034 665.575 133.936 658.969 135.53 652.844L140.236 634.723L132.287 639.549C126.57 643.019 120.722 646.604 116.595 651.872C112.469 657.141 110.381 664.523 113.101 670.637" fill="#E6E6E6"/>
<path d="M113.744 695.58C112.728 682.809 111.862 668.437 120.479 657.845C122.877 654.902 125.816 652.446 129.136 650.607C130.181 650.023 130.962 651.715 129.915 652.298C124.366 655.406 120.058 660.33 117.715 666.243C115.45 671.917 114.863 678.078 114.938 684.142C114.982 687.852 115.28 691.56 115.574 695.26C115.67 696.44 113.838 696.776 113.744 695.58Z" fill="#F2F2F2"/>
<path d="M94.8652 379.373C119.67 379.373 139.778 359.265 139.778 334.46C139.778 309.655 119.67 289.547 94.8652 289.547C70.0604 289.547 49.9521 309.655 49.9521 334.46C49.9521 359.265 70.0604 379.373 94.8652 379.373Z" fill="#E4E4E4"/>
<path d="M105.4 362.076C96.3192 362.076 87.4425 359.383 79.8922 354.338C72.3419 349.293 66.4571 342.122 62.9822 333.733C59.5072 325.343 58.598 316.112 60.3696 307.205C62.1412 298.299 66.514 290.118 72.9351 283.697C79.3561 277.276 87.537 272.904 96.4432 271.132C105.349 269.361 114.581 270.27 122.97 273.745C131.36 277.22 138.531 283.105 143.575 290.655C148.62 298.206 151.313 307.082 151.313 316.163C151.299 328.336 146.458 340.006 137.85 348.613C129.243 357.22 117.573 362.062 105.4 362.076ZM105.4 272.25C96.7148 272.25 88.2248 274.826 81.0034 279.651C73.782 284.476 68.1536 291.334 64.8299 299.358C61.5063 307.382 60.6367 316.212 62.3311 324.73C64.0255 333.248 68.2078 341.073 74.3491 347.214C80.4904 353.355 88.3149 357.538 96.8331 359.232C105.351 360.926 114.181 360.057 122.205 356.733C130.229 353.409 137.087 347.781 141.912 340.56C146.737 333.338 149.313 324.848 149.313 316.163C149.3 304.521 144.669 293.359 136.437 285.126C128.204 276.894 117.042 272.263 105.4 272.25Z" fill="#2F2E41"/>
<path d="M67.751 178.343C72.1693 178.343 75.751 174.761 75.751 170.343C75.751 165.924 72.1693 162.343 67.751 162.343C63.3327 162.343 59.751 165.924 59.751 170.343C59.751 174.761 63.3327 178.343 67.751 178.343Z" fill="#F2F2F2"/>
<path d="M478.751 138.343C483.169 138.343 486.751 134.761 486.751 130.343C486.751 125.924 483.169 122.343 478.751 122.343C474.333 122.343 470.751 125.924 470.751 130.343C470.751 134.761 474.333 138.343 478.751 138.343Z" fill="#FD6584"/>
<path d="M531.751 422.343C536.169 422.343 539.751 418.761 539.751 414.343C539.751 409.924 536.169 406.343 531.751 406.343C527.333 406.343 523.751 409.924 523.751 414.343C523.751 418.761 527.333 422.343 531.751 422.343Z" fill="#F2F2F2"/>
<path d="M173.479 201.643L173.783 199.666L212.855 205.66C208.873 201.816 195.687 189.929 183.728 188.723C169.441 187.284 163.156 193.399 162.325 201.642C161.494 209.885 166.433 217.132 180.72 218.572C192.83 219.793 208.362 210.529 212.815 207.678L173.479 201.643Z" fill="#F2F2F2"/>
<path d="M547.368 95.7282L546.162 94.1318L577.707 70.3086C572.175 70.4817 554.46 71.6421 545.256 79.3726C534.261 88.6079 534.26 97.3781 539.588 103.722C544.916 110.065 553.555 111.58 564.55 102.345C573.871 94.5165 578.063 76.9243 579.125 71.7443L547.368 95.7282Z" fill="#F2F2F2"/>
<path d="M472.885 325.065L472.018 323.917L494.712 306.777C490.732 306.902 477.987 307.737 471.365 313.298C463.455 319.943 463.455 326.252 467.288 330.816C471.121 335.38 477.336 336.47 485.247 329.825C491.952 324.193 494.968 311.537 495.732 307.81L472.885 325.065Z" fill="#F2F2F2"/>
<path d="M293.23 52.2521C299.379 35.7202 313.906 21.4355 331.462 19.7363C320.908 35.7523 316.358 54.9855 318.618 74.033C319.517 81.3757 321.281 89.4489 317.322 95.6984C314.86 99.5869 310.519 101.981 306.045 103.061C301.571 104.141 296.909 104.058 292.306 103.968L291.276 104.477C288.04 87.1378 287.081 68.7841 293.23 52.2521Z" fill="#F0F0F0"/>
<path d="M331.548 20.0967C319.58 28.4578 310.55 40.3775 305.742 54.1627C304.654 57.1119 304.038 60.2142 303.917 63.3553C303.897 66.4189 304.698 69.432 306.237 72.0813C307.622 74.5804 309.328 76.9763 310.081 79.7686C310.445 81.2036 310.502 82.6994 310.248 84.158C309.994 85.6165 309.434 87.0049 308.606 88.2319C306.621 91.3432 303.637 93.5557 300.643 95.6179C297.319 97.9077 293.831 100.233 291.797 103.83C291.551 104.266 290.889 103.858 291.135 103.423C294.673 97.165 302.099 94.8918 306.642 89.5759C308.761 87.0954 310.146 83.961 309.491 80.6581C308.918 77.7698 307.161 75.2976 305.737 72.7793C304.198 70.2168 303.31 67.3164 303.15 64.3316C303.112 61.1945 303.607 58.0736 304.616 55.1028C306.779 48.3781 309.987 42.0355 314.121 36.3072C318.803 29.7434 324.573 24.0289 331.182 19.4109C331.591 19.1252 331.954 19.8128 331.548 20.0967Z" fill="white"/>
<path d="M307.029 49.6329C304.825 48.5123 303.092 46.6449 302.139 44.3643C301.185 42.0837 301.073 39.5383 301.823 37.1829C301.976 36.7068 302.723 36.9227 302.57 37.3994C301.868 39.5916 301.972 41.9625 302.864 44.0844C303.757 46.2063 305.378 47.9393 307.436 48.9707C307.883 49.1954 307.473 49.8563 307.029 49.6329Z" fill="white"/>
<path d="M305.367 70.9063C310.185 69.3844 314.253 66.1022 316.759 61.7143C317.007 61.2794 317.669 61.687 317.422 62.1215C314.805 66.6828 310.565 70.0898 305.547 71.6625C305.069 71.812 304.891 71.055 305.367 70.9063Z" fill="white"/>
<path d="M319.335 30.6262C320.097 31.2375 320.999 31.6498 321.96 31.8263C322.921 32.0028 323.911 31.9379 324.84 31.6373C325.316 31.4817 325.494 32.2389 325.02 32.3935C323.992 32.7208 322.899 32.7912 321.837 32.5985C320.775 32.4059 319.776 31.9561 318.928 31.2884C318.842 31.2322 318.782 31.1456 318.758 31.0463C318.734 30.947 318.749 30.8424 318.8 30.7537C318.854 30.6663 318.941 30.6039 319.041 30.58C319.141 30.5561 319.247 30.5727 319.335 30.6262Z" fill="white"/>
<path d="M373.78 61.8759C373.485 61.9815 373.19 62.0871 372.894 62.199C368.941 63.6391 365.111 65.398 361.442 67.4583C361.156 67.6131 360.868 67.7744 360.587 67.937C351.801 72.9951 344.031 79.6403 337.672 87.5349C335.144 90.6786 332.859 94.0102 330.837 97.5006C328.044 102.321 325.399 107.77 321.298 111.283C320.874 111.655 320.428 111.999 319.962 112.315L291.977 105.694C291.921 105.647 291.864 105.606 291.807 105.559L290.678 105.346C290.769 105.158 290.869 104.966 290.96 104.779C291.013 104.67 291.072 104.562 291.125 104.454C291.162 104.381 291.2 104.309 291.229 104.242C291.241 104.218 291.254 104.194 291.265 104.176C291.294 104.109 291.328 104.05 291.356 103.989C291.908 102.913 292.467 101.838 293.036 100.766C293.037 100.76 293.037 100.76 293.045 100.755C297.298 92.542 302.51 84.8627 308.572 77.8779C308.755 77.6719 308.94 77.4595 309.137 77.2565C311.905 74.1848 314.92 71.3445 318.152 68.764C319.925 67.3567 321.769 66.0401 323.676 64.8192C328.61 61.6741 334.008 59.3247 339.671 57.8569C350.962 54.9326 363.062 55.6519 373.023 61.4272C373.278 61.5751 373.526 61.7216 373.78 61.8759Z" fill="#F0F0F0"/>
<path d="M373.632 62.2168C359.042 61.687 344.656 65.7679 332.517 73.8797C329.873 75.5796 327.514 77.6857 325.525 80.1203C323.665 82.5546 322.491 85.4427 322.124 88.4843C321.725 91.3136 321.645 94.2537 320.565 96.9368C319.992 98.3019 319.137 99.5305 318.056 100.542C316.975 101.554 315.692 102.325 314.292 102.806C310.834 104.095 307.119 104.065 303.487 103.909C299.455 103.737 295.269 103.493 291.48 105.141C291.021 105.34 290.738 104.616 291.196 104.417C297.789 101.55 305.087 104.206 311.914 102.697C315.1 101.992 318.093 100.324 319.559 97.2919C320.84 94.6407 320.925 91.6089 321.305 88.7407C321.619 85.7682 322.656 82.9178 324.326 80.4386C326.184 77.9105 328.458 75.717 331.052 73.9521C336.828 69.8855 343.208 66.7525 349.958 64.6677C357.648 62.2457 365.695 61.1569 373.752 61.4486C374.251 61.4669 374.127 62.2349 373.632 62.2168Z" fill="white"/>
<path d="M336.272 71.0378C335.188 68.8165 334.928 66.282 335.54 63.8869C336.152 61.4918 337.595 59.3922 339.612 57.9629C340.021 57.6751 340.487 58.2973 340.078 58.5854C338.197 59.9129 336.853 61.8689 336.288 64.1003C335.723 66.3318 335.974 68.6917 336.996 70.7542C337.218 71.2027 336.493 71.4837 336.272 71.0378Z" fill="white"/>
<path d="M322.138 87.0229C326.901 88.7089 332.126 88.5374 336.768 86.5427C337.228 86.3447 337.511 87.0688 337.052 87.2666C332.217 89.3332 326.78 89.5006 321.827 87.7353C321.355 87.5667 321.668 86.8553 322.138 87.0229Z" fill="white"/>
<path d="M357.542 63.2707C357.782 64.2177 358.254 65.09 358.915 65.8095C359.576 66.5289 360.406 67.0729 361.329 67.3927C361.803 67.5552 361.488 68.2665 361.018 68.105C359.999 67.747 359.084 67.1451 358.352 66.3518C357.62 65.5586 357.093 64.5981 356.818 63.5543C356.784 63.4581 356.788 63.3525 356.829 63.2589C356.869 63.1654 356.944 63.0909 357.038 63.0506C357.134 63.0136 357.241 63.0159 357.335 63.0571C357.43 63.0983 357.504 63.1751 357.542 63.2707Z" fill="white"/>
<path d="M208.23 280.252C214.379 263.72 228.906 249.435 246.462 247.736C235.908 263.752 231.358 282.986 233.618 302.033C234.517 309.376 236.281 317.449 232.323 323.698C229.86 327.587 225.519 329.981 221.045 331.061C216.571 332.141 211.909 332.058 207.307 331.968L206.276 332.477C203.04 315.138 202.081 296.784 208.23 280.252Z" fill="#F0F0F0"/>
<path d="M246.548 248.097C234.58 256.458 225.55 268.378 220.742 282.163C219.654 285.112 219.038 288.214 218.917 291.355C218.897 294.419 219.698 297.432 221.237 300.081C222.622 302.58 224.328 304.976 225.081 307.769C225.445 309.204 225.502 310.699 225.248 312.158C224.994 313.617 224.434 315.005 223.606 316.232C221.621 319.343 218.637 321.556 215.643 323.618C212.319 325.908 208.831 328.233 206.797 331.83C206.551 332.266 205.889 331.858 206.135 331.423C209.673 325.165 217.099 322.892 221.642 317.576C223.761 315.095 225.146 311.961 224.491 308.658C223.918 305.77 222.161 303.298 220.737 300.779C219.198 298.217 218.31 295.316 218.15 292.332C218.112 289.194 218.607 286.074 219.616 283.103C221.779 276.378 224.987 270.035 229.121 264.307C233.803 257.743 239.573 252.029 246.182 247.411C246.591 247.125 246.954 247.813 246.548 248.097Z" fill="white"/>
<path d="M222.029 277.633C219.825 276.512 218.092 274.645 217.139 272.364C216.185 270.084 216.073 267.538 216.823 265.183C216.976 264.707 217.723 264.923 217.57 265.399C216.868 267.592 216.972 269.963 217.864 272.084C218.757 274.206 220.378 275.939 222.436 276.971C222.883 277.195 222.473 277.856 222.029 277.633Z" fill="white"/>
<path d="M220.367 298.906C225.185 297.384 229.253 294.102 231.759 289.714C232.007 289.279 232.669 289.687 232.422 290.121C229.805 294.683 225.565 298.09 220.547 299.662C220.069 299.812 219.891 299.055 220.367 298.906Z" fill="white"/>
<path d="M234.335 258.626C235.097 259.237 235.999 259.65 236.96 259.826C237.921 260.003 238.91 259.938 239.84 259.637C240.316 259.482 240.494 260.239 240.02 260.394C238.992 260.721 237.899 260.791 236.837 260.599C235.775 260.406 234.776 259.956 233.928 259.288C233.842 259.232 233.782 259.146 233.758 259.046C233.734 258.947 233.749 258.842 233.8 258.754C233.854 258.666 233.941 258.604 234.041 258.58C234.141 258.556 234.247 258.573 234.335 258.626Z" fill="white"/>
<path d="M288.78 289.876C288.485 289.981 288.19 290.087 287.894 290.199C283.941 291.639 280.111 293.398 276.442 295.458C276.156 295.613 275.868 295.774 275.587 295.937C266.801 300.995 259.031 307.64 252.672 315.535C250.144 318.679 247.859 322.01 245.837 325.501C243.044 330.321 240.399 335.77 236.298 339.283C235.874 339.655 235.428 339.999 234.962 340.315L206.977 333.694C206.921 333.647 206.863 333.606 206.807 333.559L205.678 333.346C205.769 333.158 205.869 332.966 205.96 332.779C206.013 332.67 206.072 332.562 206.125 332.454C206.162 332.381 206.199 332.309 206.229 332.242C206.241 332.218 206.254 332.194 206.264 332.176C206.294 332.109 206.328 332.05 206.356 331.989C206.908 330.913 207.467 329.838 208.036 328.766C208.037 328.76 208.037 328.76 208.045 328.755C212.298 320.542 217.51 312.863 223.572 305.878C223.755 305.672 223.94 305.459 224.137 305.257C226.905 302.185 229.92 299.345 233.151 296.764C234.925 295.357 236.769 294.04 238.676 292.819C243.61 289.674 249.008 287.325 254.671 285.857C265.962 282.933 278.062 283.652 288.023 289.427C288.278 289.575 288.526 289.722 288.78 289.876Z" fill="#F0F0F0"/>
<path d="M288.632 290.217C274.042 289.687 259.656 293.768 247.517 301.88C244.873 303.58 242.514 305.686 240.525 308.12C238.665 310.555 237.491 313.443 237.124 316.484C236.725 319.314 236.645 322.254 235.565 324.937C234.992 326.302 234.137 327.531 233.056 328.542C231.975 329.554 230.692 330.325 229.292 330.806C225.834 332.095 222.119 332.065 218.487 331.909C214.455 331.737 210.269 331.493 206.48 333.141C206.021 333.34 205.738 332.616 206.196 332.417C212.789 329.55 220.087 332.206 226.914 330.697C230.1 329.992 233.093 328.324 234.559 325.292C235.84 322.641 235.925 319.609 236.304 316.741C236.619 313.768 237.656 310.918 239.326 308.439C241.184 305.91 243.458 303.717 246.052 301.952C251.828 297.886 258.208 294.752 264.958 292.668C272.648 290.246 280.695 289.157 288.752 289.449C289.251 289.467 289.127 290.235 288.632 290.217Z" fill="white"/>
<path d="M251.272 299.038C250.188 296.816 249.928 294.282 250.54 291.887C251.152 289.492 252.595 287.392 254.612 285.963C255.021 285.675 255.487 286.297 255.078 286.585C253.197 287.913 251.853 289.869 251.288 292.1C250.723 294.332 250.974 296.692 251.996 298.754C252.218 299.203 251.493 299.484 251.272 299.038Z" fill="white"/>
<path d="M237.138 315.023C241.901 316.709 247.126 316.537 251.768 314.543C252.228 314.345 252.511 315.069 252.052 315.267C247.217 317.333 241.78 317.501 236.827 315.735C236.355 315.567 236.668 314.855 237.138 315.023Z" fill="white"/>
<path d="M272.542 291.271C272.782 292.218 273.254 293.09 273.915 293.809C274.576 294.529 275.406 295.073 276.329 295.393C276.803 295.555 276.488 296.267 276.018 296.105C274.999 295.747 274.084 295.145 273.352 294.352C272.62 293.559 272.093 292.598 271.818 291.554C271.784 291.458 271.788 291.353 271.829 291.259C271.869 291.165 271.944 291.091 272.038 291.051C272.134 291.014 272.241 291.016 272.335 291.057C272.43 291.098 272.504 291.175 272.542 291.271Z" fill="white"/>
<path d="M556.575 404.166C553.437 392.436 555.898 378.627 565.075 370.676C565.534 383.873 570.646 396.482 579.507 406.273C582.938 410.037 587.146 413.865 587.415 418.951C587.431 422.156 586.215 425.244 584.02 427.579C581.835 429.88 579.365 431.891 576.669 433.564L576.294 434.26C567.566 425.817 559.712 415.897 556.575 404.166Z" fill="#F0F0F0"/>
<path d="M565.267 370.844C561.881 380.308 561.564 390.598 564.359 400.252C564.924 402.341 565.815 404.328 566.998 406.14C568.209 407.867 569.859 409.239 571.779 410.113C573.626 410.826 575.379 411.76 577.001 412.896C577.777 413.556 578.405 414.373 578.844 415.293C579.283 416.213 579.522 417.216 579.546 418.235C579.533 420.752 579.014 423.241 578.02 425.554C577.067 428.164 576.036 430.86 576.328 433.69C576.364 434.033 575.83 434.068 575.794 433.725C575.286 428.802 578.548 424.566 578.979 419.772C579.143 418.667 579.052 417.539 578.714 416.474C578.375 415.41 577.797 414.437 577.024 413.63C575.551 412.237 573.58 411.55 571.776 410.704C569.891 409.879 568.237 408.605 566.958 406.993C565.686 405.248 564.72 403.298 564.102 401.229C562.636 396.592 561.908 391.753 561.946 386.89C561.958 381.339 562.919 375.832 564.788 370.605C564.904 370.282 565.382 370.523 565.267 370.844Z" fill="white"/>
<path d="M563.276 397.197C561.593 397.446 559.876 397.088 558.431 396.188C556.987 395.288 555.91 393.904 555.392 392.283C555.288 391.955 555.794 391.778 555.897 392.107C556.377 393.617 557.381 394.907 558.727 395.742C560.074 396.577 561.675 396.904 563.241 396.663C563.581 396.611 563.615 397.145 563.276 397.197Z" fill="white"/>
<path d="M570.823 409.8C572.921 407.025 573.896 403.562 573.554 400.1C573.52 399.757 574.054 399.722 574.088 400.064C574.437 403.668 573.415 407.27 571.225 410.153C571.016 410.427 570.615 410.073 570.823 409.8Z" fill="white"/>
<path d="M562.608 381.623C563.28 381.662 563.95 381.534 564.56 381.25C565.17 380.966 565.699 380.535 566.102 379.996C566.307 379.719 566.708 380.073 566.504 380.349C566.057 380.942 565.472 381.418 564.799 381.733C564.126 382.048 563.386 382.194 562.644 382.157C562.573 382.159 562.505 382.135 562.452 382.089C562.399 382.042 562.366 381.978 562.359 381.908C562.355 381.837 562.378 381.767 562.425 381.714C562.472 381.661 562.538 381.628 562.608 381.623Z" fill="white"/>
<path d="M605.625 377.464C605.502 377.641 605.379 377.817 605.257 377.998C603.612 380.382 602.163 382.896 600.925 385.515C600.826 385.716 600.729 385.921 600.636 386.124C597.72 392.465 596.007 399.293 595.584 406.259C595.418 409.031 595.464 411.812 595.72 414.577C596.073 418.396 596.761 422.509 595.859 426.116C595.769 426.493 595.656 426.864 595.52 427.228L577.173 434.665C577.122 434.661 577.074 434.661 577.023 434.657L576.304 434.987C576.281 434.846 576.26 434.698 576.237 434.556C576.223 434.474 576.214 434.391 576.2 434.308C576.192 434.253 576.184 434.198 576.174 434.148C576.171 434.13 576.169 434.111 576.168 434.097C576.157 434.048 576.153 434.001 576.145 433.955C576.025 433.132 575.911 432.305 575.803 431.477C575.801 431.473 575.801 431.473 575.803 431.467C574.917 425.162 574.782 418.774 575.401 412.437C575.422 412.248 575.441 412.055 575.47 411.863C575.8 409.035 576.36 406.239 577.145 403.503C577.58 402.006 578.09 400.532 578.674 399.086C580.19 395.354 582.283 391.884 584.878 388.803C590.05 382.661 597.129 378.242 605.022 377.514C605.224 377.495 605.422 377.478 605.625 377.464Z" fill="#F0F0F0"/>
<path d="M605.678 377.714C597.277 383.231 590.828 391.256 587.248 400.648C586.441 402.656 585.956 404.779 585.81 406.938C585.736 409.046 586.228 411.135 587.235 412.988C588.28 414.669 589.118 416.471 589.729 418.354C589.951 419.349 589.961 420.379 589.757 421.378C589.554 422.377 589.141 423.321 588.547 424.149C587.021 426.151 585.108 427.827 582.922 429.075C580.589 430.585 578.143 432.117 576.672 434.552C576.494 434.847 576.047 434.554 576.225 434.259C578.783 430.022 583.938 428.604 587.169 425.035C587.965 424.252 588.571 423.297 588.942 422.243C589.312 421.189 589.436 420.064 589.305 418.955C588.968 416.956 587.807 415.22 586.877 413.459C585.868 411.665 585.315 409.652 585.264 407.595C585.299 405.435 585.702 403.297 586.454 401.273C588.076 396.688 590.408 392.386 593.366 388.526C596.717 384.101 600.8 380.282 605.439 377.234C605.726 377.046 605.963 377.526 605.678 377.714Z" fill="white"/>
<path d="M588.223 397.556C586.728 396.741 585.572 395.422 584.961 393.834C584.35 392.246 584.323 390.492 584.886 388.886C585.001 388.561 585.51 388.724 585.395 389.049C584.869 390.544 584.894 392.178 585.466 393.655C586.038 395.133 587.12 396.358 588.516 397.108C588.819 397.272 588.524 397.718 588.223 397.556Z" fill="white"/>
<path d="M586.66 412.163C590.006 411.21 592.87 409.032 594.681 406.062C594.861 405.767 595.308 406.061 595.129 406.355C593.239 409.442 590.254 411.703 586.77 412.686C586.437 412.78 586.33 412.256 586.66 412.163Z" fill="white"/>
<path d="M597.066 384.719C597.579 385.155 598.191 385.456 598.849 385.597C599.507 385.737 600.189 385.712 600.835 385.523C601.166 385.426 601.273 385.95 600.944 386.047C600.23 386.252 599.476 386.279 598.749 386.126C598.022 385.972 597.343 385.643 596.773 385.167C596.715 385.126 596.675 385.066 596.661 384.997C596.647 384.928 596.659 384.856 596.696 384.796C596.735 384.737 596.796 384.696 596.865 384.681C596.935 384.667 597.007 384.68 597.066 384.719Z" fill="white"/>
</g>
<defs>
<clipPath id="clip0_424_5">
<rect width="650.502" height="698.685" fill="white"/>
</clipPath>
</defs>
</svg>
