<svg width="94" height="81" viewBox="0 0 94 81" fill="none" xmlns="http://www.w3.org/2000/svg">
<path d="M86.3897 15.64L57.509 2.71958C51.1517 -0.846375 43.239 -0.909647 36.8178 2.55407L7.61204 15.64C7.50244 15.6916 7.3888 15.7468 7.28305 15.8055C0.352199 19.527 -2.05392 27.82 1.90903 34.3285C3.25235 36.5349 5.22832 38.3427 7.61204 39.5464L15.6685 43.1508V61.1725C15.6733 69.231 21.2571 76.3505 29.4509 78.7455C35.153 80.2946 41.0655 81.053 47.0011 80.9964C52.9358 81.0588 58.8483 80.3068 64.5513 78.764C72.745 76.3692 78.3289 69.2495 78.3337 61.1909V43.1434L86.1669 39.6273V69.9625C86.1669 71.9938 87.9203 73.6404 90.0834 73.6404C92.2464 73.6404 93.9999 71.9938 93.9999 69.9625V25.8278C94.0259 21.5089 90.3945 17.5192 86.3897 15.64ZM70.5003 61.1909C70.5023 66.0111 67.172 70.2748 62.2755 71.7207C57.3102 73.053 52.1647 73.6997 47.0009 73.6406C41.8371 73.6997 36.6916 73.053 31.7263 71.7207C26.8298 70.2746 23.4995 66.0111 23.5015 61.1909V46.6559L36.4928 52.4671C39.6983 54.2545 43.3592 55.1938 47.0872 55.185C50.6356 55.2086 54.1243 54.3264 57.1802 52.6326L70.5003 46.6558V61.1909ZM83.0334 32.9078L53.4946 46.1482C49.376 48.4003 44.2709 48.3365 40.2175 45.9827L11.3171 33.0733C8.09562 31.442 6.89238 27.6673 8.62949 24.6423C9.21698 23.6193 10.0978 22.7713 11.1722 22.1941L40.5268 9.02723C44.6467 6.78015 49.749 6.84377 53.804 9.19274L82.6847 22.1132C84.8087 23.2207 86.1375 25.3121 86.1665 27.5933C86.1703 29.7542 84.9855 31.7637 83.0334 32.9078Z" fill="white"/>
</svg>
