<svg width="32" height="26" viewBox="0 0 32 26" fill="none" xmlns="http://www.w3.org/2000/svg">
<g id="&#240;&#159;&#166;&#134; icon &#34;arrow right 1&#34;">
<g id="Group">
<path id="Vector" d="M20.102 26C19.775 26 19.448 25.8665 19.1898 25.5806C18.6906 25.0277 18.6906 24.1126 19.1898 23.5597L28.7254 12.9976L19.1898 2.43557C18.6906 1.88268 18.6906 0.967554 19.1898 0.414666C19.6889 -0.138222 20.5151 -0.138222 21.0143 0.414666L31.4621 11.9871C31.9613 12.54 31.9613 13.4552 31.4621 14.008L21.0143 25.5806C20.7561 25.8665 20.4291 26 20.102 26Z" fill="white"/>
<path id="Vector_2" d="M30.2591 14.4273H1.29092C0.585215 14.4273 0 13.7791 0 12.9974C0 12.2157 0.585215 11.5675 1.29092 11.5675H30.2591C30.9648 11.5675 31.55 12.2157 31.55 12.9974C31.55 13.7791 30.9648 14.4273 30.2591 14.4273Z" fill="white"/>
</g>
</g>
</svg>
