<svg width="176" height="172" viewBox="0 0 176 172" fill="none" xmlns="http://www.w3.org/2000/svg">
<path d="M147.043 133.997C154.935 124.71 160.424 113.701 163.045 101.901C165.666 90.1008 165.342 77.8572 162.1 66.2055C158.859 54.5539 152.795 43.8369 144.422 34.9611C136.049 26.0853 125.613 19.3118 113.996 15.2134C102.38 11.1151 89.9248 9.81248 77.6847 11.4158C65.4445 13.0191 53.7793 17.4812 43.6757 24.4246C33.5721 31.368 25.3273 40.5885 19.6387 51.3062C13.95 62.0239 10.9849 73.9235 10.9942 85.9986C10.9985 103.554 17.3258 120.548 28.866 133.997L28.756 134.087C29.1408 134.541 29.5806 134.929 29.9775 135.372C30.4722 135.929 31.0022 136.447 31.5167 136.989C33.0559 138.619 34.6358 140.188 36.2992 141.665C36.8022 142.112 37.3239 142.532 37.8384 142.964C39.5975 144.447 41.4028 145.852 43.2806 147.164C43.523 147.332 43.738 147.536 43.9821 147.705V147.636C56.857 156.495 72.2161 161.25 87.9593 161.25C103.703 161.25 119.062 156.495 131.937 147.636V147.704C132.181 147.535 132.396 147.331 132.638 147.163C134.514 145.851 136.321 144.446 138.08 142.963C138.595 142.533 139.116 142.111 139.619 141.664C141.282 140.187 142.863 138.618 144.402 136.988C144.915 136.447 145.443 135.928 145.941 135.371C146.336 134.928 146.778 134.54 147.163 134.086L147.043 133.997ZM87.9544 42.9986C92.8469 42.9986 97.6296 44.4172 101.698 47.0749C105.766 49.7327 108.936 53.5103 110.809 57.93C112.681 62.3496 113.171 67.2129 112.216 71.9049C111.262 76.5968 108.906 80.9066 105.446 84.2892C101.987 87.6719 97.5789 89.9756 92.7804 90.9089C87.9818 91.8421 83.008 91.3631 78.4879 89.5324C73.9677 87.7017 70.1043 84.6016 67.3861 80.624C64.668 76.6463 63.2172 71.9699 63.2172 67.1861C63.2172 60.7712 65.8234 54.619 70.4625 50.083C75.1017 45.5469 81.3937 42.9986 87.9544 42.9986ZM44.0161 133.997C44.1111 126.94 47.0441 120.203 52.1807 115.243C57.3173 110.284 64.2443 107.502 71.4629 107.499H104.446C111.664 107.502 118.591 110.284 123.728 115.244C128.864 120.203 131.798 126.94 131.893 133.997C119.837 144.62 104.183 150.499 87.9544 150.499C71.7256 150.499 56.0722 144.62 44.0161 133.997Z" fill="#01567D"/>
</svg>
